<svg width="558" height="412" viewBox="0 0 558 412" fill="none" xmlns="http://www.w3.org/2000/svg">
<rect y="253" width="50" height="50" fill="#0000FF" fill-opacity="0.5"/>
<path d="M23.8125 278.057H20.1152V281.08H24.4102V282H18.9902V273.469H24.3516V274.395H20.1152V277.137H23.8125V278.057ZM30.8789 278.361C30.8789 279.631 30.6621 280.574 30.2285 281.191C29.7949 281.809 29.1172 282.117 28.1953 282.117C27.2852 282.117 26.6113 281.816 26.1738 281.215C25.7363 280.609 25.5098 279.707 25.4941 278.508V277.061C25.4941 275.807 25.7109 274.875 26.1445 274.266C26.5781 273.656 27.2578 273.352 28.1836 273.352C29.1016 273.352 29.7773 273.646 30.2109 274.236C30.6445 274.822 30.8672 275.729 30.8789 276.955V278.361ZM29.7949 276.879C29.7949 275.961 29.666 275.293 29.4082 274.875C29.1504 274.453 28.7422 274.242 28.1836 274.242C27.6289 274.242 27.2246 274.451 26.9707 274.869C26.7168 275.287 26.5859 275.93 26.5781 276.797V278.531C26.5781 279.453 26.7109 280.135 26.9766 280.576C27.2461 281.014 27.6523 281.232 28.1953 281.232C28.7305 281.232 29.127 281.025 29.3848 280.611C29.6465 280.197 29.7832 279.545 29.7949 278.654V276.879Z" fill="black"/>
<rect x="508" y="253" width="50" height="50" fill="#0000FF" fill-opacity="0.5"/>
<path d="M531.812 278.057H528.115V281.08H532.41V282H526.99V273.469H532.352V274.395H528.115V277.137H531.812V278.057ZM537.092 282H536.002V274.775L533.816 275.578V274.594L536.922 273.428H537.092V282Z" fill="black"/>
<rect x="170" y="253" width="50" height="50" fill="#FF0000" fill-opacity="0.75"/>
<path d="M180.291 284.125V285.66H181.475V286.498H180.291V290.43C180.291 290.684 180.344 290.875 180.449 291.004C180.555 291.129 180.734 291.191 180.988 291.191C181.113 291.191 181.285 291.168 181.504 291.121V292C181.219 292.078 180.941 292.117 180.672 292.117C180.188 292.117 179.822 291.971 179.576 291.678C179.33 291.385 179.207 290.969 179.207 290.43V286.498H178.053V285.66H179.207V284.125H180.291ZM186.438 290.318C186.438 290.025 186.326 289.799 186.104 289.639C185.885 289.475 185.5 289.334 184.949 289.217C184.402 289.1 183.967 288.959 183.643 288.795C183.322 288.631 183.084 288.436 182.928 288.209C182.775 287.982 182.699 287.713 182.699 287.4C182.699 286.881 182.918 286.441 183.355 286.082C183.797 285.723 184.359 285.543 185.043 285.543C185.762 285.543 186.344 285.729 186.789 286.1C187.238 286.471 187.463 286.945 187.463 287.523H186.373C186.373 287.227 186.246 286.971 185.992 286.756C185.742 286.541 185.426 286.434 185.043 286.434C184.648 286.434 184.34 286.52 184.117 286.691C183.895 286.863 183.783 287.088 183.783 287.365C183.783 287.627 183.887 287.824 184.094 287.957C184.301 288.09 184.674 288.217 185.213 288.338C185.756 288.459 186.195 288.604 186.531 288.771C186.867 288.939 187.115 289.143 187.275 289.381C187.439 289.615 187.521 289.902 187.521 290.242C187.521 290.809 187.295 291.264 186.842 291.607C186.389 291.947 185.801 292.117 185.078 292.117C184.57 292.117 184.121 292.027 183.73 291.848C183.34 291.668 183.033 291.418 182.811 291.098C182.592 290.773 182.482 290.424 182.482 290.049H183.566C183.586 290.412 183.73 290.701 184 290.916C184.273 291.127 184.633 291.232 185.078 291.232C185.488 291.232 185.816 291.15 186.062 290.986C186.312 290.818 186.438 290.596 186.438 290.318ZM190.018 286.428C190.498 285.838 191.123 285.543 191.893 285.543C193.232 285.543 193.908 286.299 193.92 287.811V292H192.836V287.805C192.832 287.348 192.727 287.01 192.52 286.791C192.316 286.572 191.998 286.463 191.564 286.463C191.213 286.463 190.904 286.557 190.639 286.744C190.373 286.932 190.166 287.178 190.018 287.482V292H188.934V283H190.018V286.428ZM199.457 292C199.395 291.875 199.344 291.652 199.305 291.332C198.801 291.855 198.199 292.117 197.5 292.117C196.875 292.117 196.361 291.941 195.959 291.59C195.561 291.234 195.361 290.785 195.361 290.242C195.361 289.582 195.611 289.07 196.111 288.707C196.615 288.34 197.322 288.156 198.232 288.156H199.287V287.658C199.287 287.279 199.174 286.979 198.947 286.756C198.721 286.529 198.387 286.416 197.945 286.416C197.559 286.416 197.234 286.514 196.973 286.709C196.711 286.904 196.58 287.141 196.58 287.418H195.49C195.49 287.102 195.602 286.797 195.824 286.504C196.051 286.207 196.355 285.973 196.738 285.801C197.125 285.629 197.549 285.543 198.01 285.543C198.74 285.543 199.312 285.727 199.727 286.094C200.141 286.457 200.355 286.959 200.371 287.6V290.518C200.371 291.1 200.445 291.562 200.594 291.906V292H199.457ZM197.658 291.174C197.998 291.174 198.32 291.086 198.625 290.91C198.93 290.734 199.15 290.506 199.287 290.225V288.924H198.438C197.109 288.924 196.445 289.312 196.445 290.09C196.445 290.43 196.559 290.695 196.785 290.887C197.012 291.078 197.303 291.174 197.658 291.174ZM205.135 286.633C204.971 286.605 204.793 286.592 204.602 286.592C203.891 286.592 203.408 286.895 203.154 287.5V292H202.07V285.66H203.125L203.143 286.393C203.498 285.826 204.002 285.543 204.654 285.543C204.865 285.543 205.025 285.57 205.135 285.625V286.633ZM207.906 289.064L207.227 289.773V292H206.143V283H207.227V288.443L207.807 287.746L209.781 285.66H211.1L208.633 288.309L211.387 292H210.115L207.906 289.064Z" fill="black"/>
<path d="M193.119 266.549H191.115V270H189.984V261.469H192.809C193.77 261.469 194.508 261.688 195.023 262.125C195.543 262.562 195.803 263.199 195.803 264.035C195.803 264.566 195.658 265.029 195.369 265.424C195.084 265.818 194.686 266.113 194.174 266.309L196.178 269.93V270H194.971L193.119 266.549ZM191.115 265.629H192.844C193.402 265.629 193.846 265.484 194.174 265.195C194.506 264.906 194.672 264.52 194.672 264.035C194.672 263.508 194.514 263.104 194.197 262.822C193.885 262.541 193.432 262.398 192.838 262.395H191.115V265.629ZM202.453 266.361C202.453 267.631 202.236 268.574 201.803 269.191C201.369 269.809 200.691 270.117 199.77 270.117C198.859 270.117 198.186 269.816 197.748 269.215C197.311 268.609 197.084 267.707 197.068 266.508V265.061C197.068 263.807 197.285 262.875 197.719 262.266C198.152 261.656 198.832 261.352 199.758 261.352C200.676 261.352 201.352 261.646 201.785 262.236C202.219 262.822 202.441 263.729 202.453 264.955V266.361ZM201.369 264.879C201.369 263.961 201.24 263.293 200.982 262.875C200.725 262.453 200.316 262.242 199.758 262.242C199.203 262.242 198.799 262.451 198.545 262.869C198.291 263.287 198.16 263.93 198.152 264.797V266.531C198.152 267.453 198.285 268.135 198.551 268.576C198.82 269.014 199.227 269.232 199.77 269.232C200.305 269.232 200.701 269.025 200.959 268.611C201.221 268.197 201.357 267.545 201.369 266.654V264.879Z" fill="black"/>
<rect x="170" y="362" width="50" height="50" fill="#FF0000" fill-opacity="0.5"/>
<path d="M192.119 387.549H190.115V391H188.984V382.469H191.809C192.77 382.469 193.508 382.688 194.023 383.125C194.543 383.562 194.803 384.199 194.803 385.035C194.803 385.566 194.658 386.029 194.369 386.424C194.084 386.818 193.686 387.113 193.174 387.309L195.178 390.93V391H193.971L192.119 387.549ZM190.115 386.629H191.844C192.402 386.629 192.846 386.484 193.174 386.195C193.506 385.906 193.672 385.52 193.672 385.035C193.672 384.508 193.514 384.104 193.197 383.822C192.885 383.541 192.432 383.398 191.838 383.395H190.115V386.629ZM199.666 391H198.576V383.775L196.391 384.578V383.594L199.496 382.428H199.666V391Z" fill="black"/>
<rect x="335" y="184" width="50" height="50" fill="#FF0000" fill-opacity="0.5"/>
<path d="M357.119 209.549H355.115V213H353.984V204.469H356.809C357.77 204.469 358.508 204.688 359.023 205.125C359.543 205.562 359.803 206.199 359.803 207.035C359.803 207.566 359.658 208.029 359.369 208.424C359.084 208.818 358.686 209.113 358.174 209.309L360.178 212.93V213H358.971L357.119 209.549ZM355.115 208.629H356.844C357.402 208.629 357.846 208.484 358.174 208.195C358.506 207.906 358.672 207.52 358.672 207.035C358.672 206.508 358.514 206.104 358.197 205.822C357.885 205.541 357.432 205.398 356.838 205.395H355.115V208.629ZM366.693 213H361.104V212.221L364.057 208.939C364.494 208.443 364.795 208.041 364.959 207.732C365.127 207.42 365.211 207.098 365.211 206.766C365.211 206.32 365.076 205.955 364.807 205.67C364.537 205.385 364.178 205.242 363.729 205.242C363.189 205.242 362.77 205.396 362.469 205.705C362.172 206.01 362.023 206.436 362.023 206.982H360.939C360.939 206.197 361.191 205.562 361.695 205.078C362.203 204.594 362.881 204.352 363.729 204.352C364.521 204.352 365.148 204.561 365.609 204.979C366.07 205.393 366.301 205.945 366.301 206.637C366.301 207.477 365.766 208.477 364.695 209.637L362.41 212.115H366.693V213Z" fill="black"/>
<rect x="335" y="323" width="50" height="50" fill="#FF0000" fill-opacity="0.5"/>
<path d="M357.119 348.549H355.115V352H353.984V343.469H356.809C357.77 343.469 358.508 343.688 359.023 344.125C359.543 344.562 359.803 345.199 359.803 346.035C359.803 346.566 359.658 347.029 359.369 347.424C359.084 347.818 358.686 348.113 358.174 348.309L360.178 351.93V352H358.971L357.119 348.549ZM355.115 347.629H356.844C357.402 347.629 357.846 347.484 358.174 347.195C358.506 346.906 358.672 346.52 358.672 346.035C358.672 345.508 358.514 345.104 358.197 344.822C357.885 344.541 357.432 344.398 356.838 344.395H355.115V347.629ZM362.68 347.207H363.494C364.006 347.199 364.408 347.064 364.701 346.803C364.994 346.541 365.141 346.188 365.141 345.742C365.141 344.742 364.643 344.242 363.646 344.242C363.178 344.242 362.803 344.377 362.521 344.646C362.244 344.912 362.105 345.266 362.105 345.707H361.021C361.021 345.031 361.268 344.471 361.76 344.025C362.256 343.576 362.885 343.352 363.646 343.352C364.451 343.352 365.082 343.564 365.539 343.99C365.996 344.416 366.225 345.008 366.225 345.766C366.225 346.137 366.104 346.496 365.861 346.844C365.623 347.191 365.297 347.451 364.883 347.623C365.352 347.771 365.713 348.018 365.967 348.361C366.225 348.705 366.354 349.125 366.354 349.621C366.354 350.387 366.104 350.994 365.604 351.443C365.104 351.893 364.453 352.117 363.652 352.117C362.852 352.117 362.199 351.9 361.695 351.467C361.195 351.033 360.945 350.461 360.945 349.75H362.035C362.035 350.199 362.182 350.559 362.475 350.828C362.768 351.098 363.16 351.232 363.652 351.232C364.176 351.232 364.576 351.096 364.854 350.822C365.131 350.549 365.27 350.156 365.27 349.645C365.27 349.148 365.117 348.768 364.812 348.502C364.508 348.236 364.068 348.1 363.494 348.092H362.68V347.207Z" fill="black"/>
<rect x="261" width="50" height="50" fill="#008000" fill-opacity="0.5"/>
<path d="M289.266 26.293C289.16 27.1953 288.826 27.8926 288.264 28.3848C287.705 28.873 286.961 29.1172 286.031 29.1172C285.023 29.1172 284.215 28.7559 283.605 28.0332C283 27.3105 282.697 26.3438 282.697 25.1328V24.3125C282.697 23.5195 282.838 22.8223 283.119 22.2207C283.404 21.6191 283.807 21.1582 284.326 20.8379C284.846 20.5137 285.447 20.3516 286.131 20.3516C287.037 20.3516 287.764 20.6055 288.311 21.1133C288.857 21.6172 289.176 22.3164 289.266 23.2109H288.135C288.037 22.5312 287.824 22.0391 287.496 21.7344C287.172 21.4297 286.717 21.2773 286.131 21.2773C285.412 21.2773 284.848 21.543 284.438 22.0742C284.031 22.6055 283.828 23.3613 283.828 24.3418V25.168C283.828 26.0938 284.021 26.8301 284.408 27.377C284.795 27.9238 285.336 28.1973 286.031 28.1973C286.656 28.1973 287.135 28.0566 287.467 27.7754C287.803 27.4902 288.025 26.9961 288.135 26.293H289.266Z" fill="black"/>
<ellipse cx="110" cy="277.5" rx="25" ry="24.5" fill="#FFFF00" fill-opacity="0.5"/>
<path d="M109.547 281H108.416L104.121 274.426V281H102.99V272.469H104.121L108.428 279.072V272.469H109.547V281ZM116.613 277.361C116.613 278.631 116.396 279.574 115.963 280.191C115.529 280.809 114.852 281.117 113.93 281.117C113.02 281.117 112.346 280.816 111.908 280.215C111.471 279.609 111.244 278.707 111.229 277.508V276.061C111.229 274.807 111.445 273.875 111.879 273.266C112.312 272.656 112.992 272.352 113.918 272.352C114.836 272.352 115.512 272.646 115.945 273.236C116.379 273.822 116.602 274.729 116.613 275.955V277.361ZM115.529 275.879C115.529 274.961 115.4 274.293 115.143 273.875C114.885 273.453 114.477 273.242 113.918 273.242C113.363 273.242 112.959 273.451 112.705 273.869C112.451 274.287 112.32 274.93 112.312 275.797V277.531C112.312 278.453 112.445 279.135 112.711 279.576C112.98 280.014 113.387 280.232 113.93 280.232C114.465 280.232 114.861 280.025 115.119 279.611C115.381 279.197 115.518 278.545 115.529 277.654V275.879Z" fill="black"/>
<ellipse cx="286" cy="95.5" rx="25" ry="24.5" fill="#FFFF00" fill-opacity="0.5"/>
<path d="M268.557 95.7773C268.557 94.8047 268.787 94.0234 269.248 93.4336C269.709 92.8398 270.312 92.543 271.059 92.543C271.801 92.543 272.389 92.7969 272.822 93.3047V90H273.906V99H272.91L272.857 98.3203C272.424 98.8516 271.82 99.1172 271.047 99.1172C270.312 99.1172 269.713 98.8164 269.248 98.2148C268.787 97.6133 268.557 96.8281 268.557 95.8594V95.7773ZM269.641 95.9004C269.641 96.6191 269.789 97.1816 270.086 97.5879C270.383 97.9941 270.793 98.1973 271.316 98.1973C272.004 98.1973 272.506 97.8887 272.822 97.2715V94.3594C272.498 93.7617 272 93.4629 271.328 93.4629C270.797 93.4629 270.383 93.668 270.086 94.0781C269.789 94.4883 269.641 95.0957 269.641 95.9004ZM278.225 99.1172C277.365 99.1172 276.666 98.8359 276.127 98.2734C275.588 97.707 275.318 96.9512 275.318 96.0059V95.8066C275.318 95.1777 275.438 94.6172 275.676 94.125C275.918 93.6289 276.254 93.2422 276.684 92.9648C277.117 92.6836 277.586 92.543 278.09 92.543C278.914 92.543 279.555 92.8145 280.012 93.3574C280.469 93.9004 280.697 94.6777 280.697 95.6895V96.1406H276.402C276.418 96.7656 276.6 97.2715 276.947 97.6582C277.299 98.041 277.744 98.2324 278.283 98.2324C278.666 98.2324 278.99 98.1543 279.256 97.998C279.521 97.8418 279.754 97.6348 279.953 97.377L280.615 97.8926C280.084 98.709 279.287 99.1172 278.225 99.1172ZM278.09 93.4336C277.652 93.4336 277.285 93.5938 276.988 93.9141C276.691 94.2305 276.508 94.6758 276.438 95.25H279.613V95.168C279.582 94.6172 279.434 94.1914 279.168 93.8906C278.902 93.5859 278.543 93.4336 278.09 93.4336ZM282.49 99V93.498H281.488V92.6602H282.49V92.0098C282.49 91.3301 282.672 90.8047 283.035 90.4336C283.398 90.0625 283.912 89.877 284.576 89.877C284.826 89.877 285.074 89.9102 285.32 89.9766L285.262 90.8555C285.078 90.8203 284.883 90.8027 284.676 90.8027C284.324 90.8027 284.053 90.9062 283.861 91.1133C283.67 91.3164 283.574 91.6094 283.574 91.9922V92.6602H284.928V93.498H283.574V99H282.49ZM290.043 99C289.98 98.875 289.93 98.6523 289.891 98.332C289.387 98.8555 288.785 99.1172 288.086 99.1172C287.461 99.1172 286.947 98.9414 286.545 98.5898C286.146 98.2344 285.947 97.7852 285.947 97.2422C285.947 96.582 286.197 96.0703 286.697 95.707C287.201 95.3398 287.908 95.1562 288.818 95.1562H289.873V94.6582C289.873 94.2793 289.76 93.9785 289.533 93.7559C289.307 93.5293 288.973 93.416 288.531 93.416C288.145 93.416 287.82 93.5137 287.559 93.709C287.297 93.9043 287.166 94.1406 287.166 94.418H286.076C286.076 94.1016 286.188 93.7969 286.41 93.5039C286.637 93.207 286.941 92.9727 287.324 92.8008C287.711 92.6289 288.135 92.543 288.596 92.543C289.326 92.543 289.898 92.7266 290.312 93.0938C290.727 93.457 290.941 93.959 290.957 94.5996V97.5176C290.957 98.0996 291.031 98.5625 291.18 98.9062V99H290.043ZM288.244 98.1738C288.584 98.1738 288.906 98.0859 289.211 97.9102C289.516 97.7344 289.736 97.5059 289.873 97.2246V95.9238H289.023C287.695 95.9238 287.031 96.3125 287.031 97.0898C287.031 97.4297 287.145 97.6953 287.371 97.8867C287.598 98.0781 287.889 98.1738 288.244 98.1738ZM296.57 98.373C296.148 98.8691 295.529 99.1172 294.713 99.1172C294.037 99.1172 293.521 98.9219 293.166 98.5312C292.814 98.1367 292.637 97.5547 292.633 96.7852V92.6602H293.717V96.7559C293.717 97.7168 294.107 98.1973 294.889 98.1973C295.717 98.1973 296.268 97.8887 296.541 97.2715V92.6602H297.625V99H296.594L296.57 98.373ZM300.455 99H299.371V90H300.455V99ZM303.666 91.125V92.6602H304.85V93.498H303.666V97.4297C303.666 97.6836 303.719 97.875 303.824 98.0039C303.93 98.1289 304.109 98.1914 304.363 98.1914C304.488 98.1914 304.66 98.168 304.879 98.1211V99C304.594 99.0781 304.316 99.1172 304.047 99.1172C303.562 99.1172 303.197 98.9707 302.951 98.6777C302.705 98.3848 302.582 97.9688 302.582 97.4297V93.498H301.428V92.6602H302.582V91.125H303.666Z" fill="black"/>
<ellipse cx="286" cy="277.5" rx="25" ry="24.5" fill="#FFFF00" fill-opacity="0.5"/>
<path d="M285.547 281H284.416L280.121 274.426V281H278.99V272.469H280.121L284.428 279.072V272.469H285.547V281ZM290.826 281H289.736V273.775L287.551 274.578V273.594L290.656 272.428H290.826V281Z" fill="black"/>
<ellipse cx="442" cy="277.5" rx="25" ry="24.5" fill="#FFFF00" fill-opacity="0.5"/>
<path d="M441.547 281H440.416L436.121 274.426V281H434.99V272.469H436.121L440.428 279.072V272.469H441.547V281ZM448.854 281H443.264V280.221L446.217 276.939C446.654 276.443 446.955 276.041 447.119 275.732C447.287 275.42 447.371 275.098 447.371 274.766C447.371 274.32 447.236 273.955 446.967 273.67C446.697 273.385 446.338 273.242 445.889 273.242C445.35 273.242 444.93 273.396 444.629 273.705C444.332 274.01 444.184 274.436 444.184 274.982H443.1C443.1 274.197 443.352 273.562 443.855 273.078C444.363 272.594 445.041 272.352 445.889 272.352C446.682 272.352 447.309 272.561 447.77 272.979C448.23 273.393 448.461 273.945 448.461 274.637C448.461 275.477 447.926 276.477 446.855 277.637L444.57 280.115H448.854V281Z" fill="black"/>
<line x1="50" y1="280.5" x2="85" y2="280.5" stroke="black"/>
<line x1="135" y1="277.5" x2="170" y2="277.5" stroke="black"/>
<line x1="110.408" y1="301.712" x2="170.408" y2="386.712" stroke="black"/>
<line x1="220" y1="277.5" x2="261" y2="277.5" stroke="black"/>
<line x1="285.666" y1="252.628" x2="334.666" y2="208.628" stroke="black"/>
<line x1="286.342" y1="301.635" x2="335.342" y2="347.635" stroke="black"/>
<line x1="385.306" y1="208.604" x2="442.306" y2="252.604" stroke="black"/>
<line x1="384.699" y1="344.601" x2="441.699" y2="301.601" stroke="black"/>
<line x1="467" y1="277.5" x2="508" y2="277.5" stroke="black"/>
<line x1="286.327" y1="119.622" x2="360.327" y2="183.622" stroke="black" stroke-dasharray="2 2"/>
<line x1="286.413" y1="120.282" x2="195.413" y2="253.282" stroke="black" stroke-dasharray="2 2"/>
<line x1="286.485" y1="120.12" x2="220.485" y2="387.12" stroke="black" stroke-dasharray="2 2"/>
<line x1="286.489" y1="119.894" x2="335.489" y2="344.894" stroke="black" stroke-dasharray="2 2"/>
<line x1="285.5" y1="71" x2="285.5" y2="50" stroke="black"/>
</svg>
